<?xml version="1.0" standalone="no"?>
<!DOCTYPE svg PUBLIC "-//W3C//DTD SVG 20010904//EN"
 "http://www.w3.org/TR/2001/REC-SVG-20010904/DTD/svg10.dtd">
<svg version="1.0" xmlns="http://www.w3.org/2000/svg"
 width="1000.000000pt" height="1000.000000pt" viewBox="0 0 1000.000000 1000.000000"
 preserveAspectRatio="xMidYMid meet">

<g transform="translate(0.000000,1000.000000) scale(0.100000,-0.100000)"
fill="#000000" stroke="none">
<path d="M5145 5741 c-105 -7 -160 -30 -188 -78 -18 -31 -18 -45 -6 -285 7
-147 9 -359 6 -507 -8 -361 -15 -351 242 -363 344 -17 537 30 670 163 59 59
85 121 85 199 0 107 -28 175 -100 248 l-63 63 25 54 c34 74 42 173 20 250 -14
46 -29 69 -74 114 -86 85 -179 123 -343 141 -100 10 -131 10 -274 1z m361
-265 c28 -9 64 -26 79 -38 24 -19 27 -26 22 -65 -6 -53 -20 -71 -76 -96 -37
-16 -66 -19 -173 -19 -71 1 -138 4 -149 7 -17 6 -19 16 -19 122 l0 116 133 -6
c79 -3 153 -11 183 -21z m150 -503 c41 -22 64 -60 64 -104 0 -29 -70 -78 -145
-102 -59 -18 -94 -22 -225 -22 l-155 0 -3 128 -3 129 213 -4 c197 -3 216 -5
254 -25z"/>
<path d="M7034 5722 c-58 -37 -58 -34 -51 -599 6 -501 7 -516 28 -549 39 -63
43 -64 404 -64 363 0 369 1 400 66 19 40 19 67 0 104 -29 56 -49 60 -328 60
l-254 0 -6 158 c-4 86 -7 287 -7 445 0 304 -3 331 -48 371 -31 27 -100 31
-138 8z"/>
<path d="M8029 5723 c-15 -9 -34 -30 -44 -46 -17 -28 -17 -63 -10 -546 8 -560
6 -545 65 -595 l32 -26 329 0 c362 0 374 2 404 60 19 37 19 90 -1 118 -34 49
-55 52 -329 52 l-255 0 -1 173 c-1 94 -4 304 -8 465 l-6 294 -37 34 c-43 39
-94 45 -139 17z"/>
<path d="M6420 5719 c-96 -16 -79 -18 93 -12 92 3 167 2 167 -2 0 -4 -54 -90
-120 -190 -66 -99 -120 -184 -120 -188 0 -4 16 -7 36 -7 25 0 33 -4 29 -12 -4
-7 0 -5 8 5 28 34 38 16 11 -20 l-26 -38 32 38 c46 53 71 49 29 -5 -41 -53
-53 -74 -19 -34 59 71 67 79 77 75 6 -2 -18 -44 -54 -94 -68 -94 -143 -221
-143 -242 0 -9 20 -13 67 -13 l66 0 -35 -32 c-48 -44 -263 -270 -316 -333 -49
-58 -49 -57 37 139 34 76 61 143 61 147 0 5 -9 9 -19 9 -14 0 -18 6 -15 23 l5
22 -10 -22 c-6 -13 -15 -23 -21 -23 -7 0 -9 9 -4 23 14 45 14 51 0 22 -8 -16
-15 -35 -16 -41 0 -7 -7 -15 -16 -18 -12 -5 -14 -1 -9 17 14 45 77 191 116
269 l40 80 -30 -4 c-17 -2 -33 0 -35 6 -3 7 -5 6 -5 -1 -1 -7 -6 -13 -12 -13
-7 0 -9 11 -5 28 5 24 4 24 -9 -5 -8 -18 -21 -33 -29 -33 -8 0 -21 -3 -29 -6
-11 -4 7 61 59 213 70 205 85 258 65 223 -14 -23 -161 -436 -161 -450 0 -9 11
-11 35 -7 33 5 34 5 28 -24 -5 -28 -4 -29 26 -23 17 4 31 4 31 0 0 -4 -12 -30
-26 -58 -30 -59 -94 -222 -94 -239 0 -6 7 -8 16 -5 9 3 27 9 40 12 23 6 24 5
14 -22 -8 -20 -8 -29 1 -34 7 -5 -11 -57 -56 -163 -37 -86 -65 -161 -63 -168
2 -6 29 19 61 56 31 36 57 62 57 57 0 -6 -13 -40 -30 -77 -50 -111 -41 -112
51 -5 35 41 139 152 232 247 93 94 166 176 162 182 -3 6 -20 11 -36 11 -25 0
-29 3 -25 18 5 13 -1 21 -21 28 l-26 9 92 137 c51 76 90 142 86 148 -3 5 -19
10 -35 10 -22 0 -27 4 -23 19 4 15 -3 19 -37 25 -29 4 -39 10 -34 19 5 6 50
76 101 155 51 79 93 145 93 147 0 3 -18 5 -40 5 -38 0 -52 12 -30 25 6 4 8 11
5 16 -8 11 -221 10 -295 -2z"/>
<path d="M1520 5409 c-175 -29 -286 -152 -258 -284 22 -101 82 -151 279 -229
152 -60 189 -85 189 -123 0 -33 -66 -62 -142 -63 -80 0 -103 12 -142 73 -48
75 -102 95 -166 62 -67 -35 -77 -97 -30 -180 39 -68 84 -107 157 -136 50 -20
76 -23 183 -23 139 0 197 15 277 74 87 64 120 207 72 307 -39 81 -152 156
-319 212 -90 29 -135 58 -121 75 17 20 91 28 144 16 25 -5 74 -28 108 -50 80
-52 118 -53 165 -6 28 28 34 42 34 76 0 56 -10 72 -77 120 -94 67 -236 99
-353 79z"/>
<path d="M2435 5407 c-164 -55 -308 -223 -345 -404 -20 -93 -8 -231 24 -296
33 -67 99 -130 174 -165 79 -37 212 -38 289 -3 28 12 59 31 69 42 23 26 29 24
44 -10 15 -38 70 -65 115 -57 42 8 82 49 95 97 11 39 -2 515 -16 624 -12 88
-49 135 -108 135 -16 0 -50 10 -75 22 -57 27 -203 35 -266 15z m194 -256 l31
-29 0 -115 0 -115 -57 -59 c-64 -66 -123 -91 -187 -79 -69 13 -103 66 -97 151
13 190 206 343 310 246z"/>
<path d="M3069 5405 c-26 -14 -59 -69 -59 -98 0 -9 26 -76 59 -149 68 -153
144 -357 190 -506 28 -89 36 -105 64 -122 40 -25 83 -25 123 -1 25 15 40 43
89 162 32 79 104 242 161 362 109 228 120 269 88 315 -23 33 -70 54 -104 47
-16 -4 -41 -20 -55 -37 -28 -33 -106 -192 -170 -345 -22 -51 -42 -93 -46 -93
-3 0 -16 27 -29 61 -12 34 -54 133 -93 221 -57 131 -76 164 -101 179 -37 22
-81 24 -117 4z"/>
<path d="M4212 5404 c-95 -25 -174 -80 -232 -161 -64 -89 -85 -166 -85 -308 0
-116 1 -123 34 -192 53 -114 157 -199 280 -233 61 -16 205 -14 275 5 131 35
226 113 226 185 0 52 -23 86 -66 100 -46 16 -76 7 -123 -35 -53 -48 -99 -65
-173 -65 -106 1 -162 30 -199 102 -35 68 -46 65 234 70 231 4 256 6 300 26 68
30 84 70 69 174 -25 174 -125 290 -287 332 -73 20 -182 19 -253 0z m203 -195
c22 -6 52 -22 66 -36 27 -25 58 -108 45 -121 -10 -9 -382 -9 -392 1 -12 12 29
98 58 120 29 22 107 45 153 46 17 1 48 -4 70 -10z"/>
<path d="M6241 5319 c-6 -18 -9 -34 -7 -36 2 -2 9 10 15 28 6 18 9 34 7 36 -2
2 -9 -10 -15 -28z"/>
</g>
</svg>
